# xmcd CD database file
#
# Track frame offsets:
#	150
#	81417
#	151902
#	202677
#	239620
#	298797
#
# Disc length: 4490 seconds
#
# Revision: 0
# Processed by: cddbd v1.5.1PL0 Copyright (c) Steve Scherf et al.
# Submitted via: CDex 1.51
#
DISCID=4c118806
DTITLE=CARL FONTANA CONTE CANDOLI Quintet - THE COMPLETE PHOENIX RECORDINGS  6 of 6
DYEAR=2002
DGENRE=Jazz
TTITLE0=SURRY WITH THE FRINGE ON TOP
TTITLE1=THERE WILL NEVER BE ANOTHER YOU
TTITLE2=I SHOULD CARE
TTITLE3=NARDIS
TTITLE4=LESTER LEAPS IN
TTITLE5=CENTER PIECE
EXTD=YEAR: 2002
EXTT0=
EXTT1=
EXTT2=
EXTT3=
EXTT4=
EXTT5=
PLAYORDER=
